<svg width="583" height="360" viewBox="0 0 583 360" fill="none" xmlns="http://www.w3.org/2000/svg">
<g clip-path="url(#clip0_1_6)">
<g clip-path="url(#clip1_1_6)">
<path d="M232.367 268.016C232.367 267.319 232.644 266.651 233.137 266.158C233.63 265.666 234.298 265.389 234.995 265.389H348.657C349.354 265.389 350.022 265.666 350.515 266.158C351.008 266.651 351.285 267.319 351.285 268.016V345.303C351.285 346 351.008 346.669 350.515 347.162C350.022 347.654 349.354 347.931 348.657 347.931H234.995C234.298 347.931 233.63 347.654 233.137 347.162C232.644 346.669 232.367 346 232.367 345.303V268.016Z" fill="#151220"/>
<path d="M232.805 268.018C232.805 267.437 233.035 266.88 233.446 266.47C233.857 266.059 234.414 265.828 234.994 265.828H348.656C349.237 265.828 349.794 266.059 350.205 266.47C350.615 266.88 350.846 267.437 350.846 268.018V345.305C350.846 345.886 350.615 346.443 350.205 346.853C349.794 347.264 349.237 347.495 348.656 347.495H234.994C234.414 347.495 233.857 347.264 233.446 346.853C233.035 346.443 232.805 345.886 232.805 345.305V268.018Z" stroke="white" stroke-opacity="0.1" stroke-width="0.875912"/>
<path fill-rule="evenodd" clip-rule="evenodd" d="M230.628 259.27H354.423C355.584 259.27 356.698 259.732 357.52 260.553C358.341 261.375 358.802 262.488 358.802 263.65V354.051H226.248V263.65C226.248 262.488 226.709 261.375 227.531 260.553C228.352 259.732 229.466 259.27 230.628 259.27ZM225.372 263.65C225.372 262.256 225.926 260.919 226.911 259.934C227.897 258.948 229.234 258.395 230.628 258.395H354.423C355.817 258.395 357.153 258.948 358.139 259.934C359.125 260.919 359.678 262.256 359.678 263.65V354.404H370.871V356.935C370.871 357.748 370.548 358.528 369.973 359.102C369.398 359.677 368.618 360 367.805 360H217.245C216.432 360 215.653 359.677 215.078 359.102C214.503 358.528 214.18 357.748 214.18 356.935V354.404H225.372V263.65ZM215.056 355.28H369.995V356.935C369.995 357.515 369.764 358.072 369.354 358.483C368.943 358.894 368.386 359.124 367.805 359.124H217.245C216.665 359.124 216.108 358.894 215.697 358.483C215.286 358.072 215.056 357.515 215.056 356.935V355.28Z" fill="url(#paint0_linear_1_6)" fill-opacity="0.4"/>
<path fill-rule="evenodd" clip-rule="evenodd" d="M319.104 272.736H239.359V274.135H319.104V272.736ZM285.527 278.333H239.359V279.731H285.527V278.333ZM239.359 311.909H285.527V313.308H239.359V311.909ZM285.527 323.101H239.359V324.5H285.527V323.101ZM239.359 317.505H326.099V318.904H239.359V317.505ZM271.537 283.929H239.359V285.328H271.537V283.929ZM239.359 306.313H251.951V307.712H239.359V306.313ZM265.941 328.697H239.359V330.096H265.941V328.697ZM239.359 334.294H265.941V335.693H239.359V334.294ZM282.729 328.697H270.138V330.096H282.729V328.697ZM270.138 334.294H282.729V335.693H270.138V334.294ZM246.354 289.525H239.359V290.924H246.354V289.525ZM270.138 289.525H291.123V290.924H270.138V289.525ZM293.922 300.716H270.138V302.116H293.922V300.716ZM270.138 295.121H300.917V296.52H270.138V295.121ZM265.941 289.525H250.552V290.924H265.941V289.525ZM239.359 295.121H246.354V296.52H239.359V295.121ZM265.941 295.121H250.552V296.52H265.941V295.121ZM239.359 300.716H246.354V302.116H239.359V300.716ZM265.941 300.716H250.552V302.116H265.941V300.716Z" fill="url(#paint1_linear_1_6)" fill-opacity="0.25"/>
<path opacity="0.5" d="M285.531 332.541H288.329V333.94H285.531V332.541Z" fill="white"/>
<path fill-rule="evenodd" clip-rule="evenodd" d="M582.206 157.956H581.221L530.725 210.098C528.571 207.316 526.064 204.826 523.266 202.692L574.186 150.111C575.003 149.267 575.981 148.597 577.062 148.139C578.143 147.681 579.305 147.445 580.479 147.445H582.206V157.956ZM465.582 257.484L411.628 304.38H367.023V314.891H412.283C414.394 314.891 416.435 314.128 418.029 312.743L472.597 265.312C469.929 263.019 467.57 260.387 465.582 257.484Z" fill="url(#paint2_linear_1_6)" fill-opacity="0.1"/>
<path d="M216.37 309.636H45.1896C39.8078 309.636 34.6309 307.572 30.7257 303.869L12.4173 286.511C10.3456 284.546 8.69573 282.181 7.56824 279.558C6.44076 276.935 5.85932 274.11 5.85938 271.255V243.066" stroke="url(#paint3_linear_1_6)" stroke-opacity="0.05" stroke-width="10.5109"/>
<path d="M309.656 250.51V229.718C309.656 226.877 310.232 224.065 311.349 221.453C312.466 218.841 314.101 216.482 316.155 214.519L500.643 38.2313C504.554 34.4938 509.756 32.4082 515.165 32.4082H582.211" stroke="url(#paint4_linear_1_6)" stroke-opacity="0.05" stroke-width="10.5109"/>
<g opacity="0.87">
<path d="M441.135 293.112C443.306 291.185 443.503 287.863 441.576 285.693C439.648 283.523 436.327 283.325 434.156 285.253C431.986 287.18 431.789 290.502 433.716 292.672C435.643 294.842 438.965 295.039 441.135 293.112Z" fill="#306EE8"/>
<path opacity="0.4" d="M430.948 302.161C433.118 300.234 433.315 296.912 431.388 294.742C429.461 292.571 426.139 292.374 423.969 294.301C421.798 296.229 421.601 299.55 423.529 301.721C425.456 303.891 428.778 304.088 430.948 302.161Z" fill="#306EE8"/>
<path opacity="0.6" d="M436.503 297.224C438.673 295.296 438.87 291.975 436.943 289.804C435.016 287.634 431.694 287.437 429.524 289.364C427.353 291.291 427.156 294.613 429.083 296.783C431.01 298.954 434.332 299.151 436.503 297.224Z" fill="#306EE8"/>
<path opacity="0.2" d="M425.385 307.095C427.556 305.167 427.753 301.846 425.826 299.675C423.898 297.505 420.577 297.308 418.406 299.235C416.236 301.162 416.039 304.484 417.966 306.654C419.893 308.825 423.215 309.022 425.385 307.095Z" fill="#306EE8"/>
<path opacity="0.1" d="M419.831 312.03C422.001 310.103 422.198 306.781 420.271 304.611C418.344 302.441 415.022 302.243 412.852 304.171C410.681 306.098 410.484 309.42 412.411 311.59C414.339 313.76 417.66 313.957 419.831 312.03Z" fill="#306EE8"/>
<path d="M439.295 287.436C438.837 286.921 438.484 286.319 438.258 285.667C438.032 285.015 437.937 284.325 437.978 283.636C438.019 282.947 438.195 282.273 438.496 281.652C438.798 281.031 439.218 280.476 439.735 280.018L454.237 267.14C455.279 266.215 456.646 265.741 458.038 265.824C459.429 265.906 460.731 266.538 461.656 267.58C462.114 268.096 462.467 268.698 462.693 269.35C462.919 270.002 463.014 270.692 462.973 271.381C462.932 272.07 462.756 272.744 462.455 273.365C462.153 273.986 461.732 274.541 461.216 274.999L446.714 287.877C445.672 288.802 444.304 289.276 442.913 289.193C441.522 289.111 440.22 288.479 439.295 287.436Z" fill="#306EE8"/>
</g>
<path opacity="0.2" d="M498.854 267.153C516.753 267.153 531.263 252.644 531.263 234.745C531.263 216.846 516.753 202.336 498.854 202.336C480.955 202.336 466.445 216.846 466.445 234.745C466.445 252.644 480.955 267.153 498.854 267.153Z" fill="white"/>
<path opacity="0.03" d="M492.714 160.73L568.492 75.6325C570.634 73.2273 574.612 74.7426 574.612 77.9625V126.485C574.612 127.383 574.268 128.246 573.65 128.898L517.678 187.883M495.342 193.577L478.12 175.206C477.798 174.863 477.41 174.588 476.979 174.398C476.548 174.208 476.083 174.106 475.612 174.1C475.141 174.093 474.674 174.182 474.238 174.36C473.802 174.538 473.407 174.803 473.075 175.137L429.569 219.04C428.981 219.633 428.624 220.416 428.563 221.249C428.502 222.082 428.74 222.909 429.235 223.582L442.531 241.65C443.069 242.383 443.872 242.877 444.768 243.028C445.664 243.18 446.584 242.977 447.334 242.463L459.868 233.869M413.882 236.496L430.005 254.923C430.611 255.615 430.92 256.517 430.866 257.435C430.812 258.353 430.399 259.213 429.717 259.83L421.069 267.641C419.726 268.854 417.692 268.835 416.263 267.727C406.464 260.132 388.82 253.676 374.028 268.467M264.539 235.621H289.503C290.432 235.621 291.323 235.251 291.98 234.594C292.637 233.937 293.006 233.046 293.006 232.117V213.684C293.006 213.151 292.884 212.624 292.65 212.145C292.416 211.666 292.075 211.246 291.654 210.919L269.357 193.577M327.605 137.956L342.706 154.568C343.021 154.914 343.263 155.319 343.418 155.76C343.574 156.201 343.639 156.669 343.611 157.135C343.583 157.602 343.462 158.058 343.255 158.477C343.048 158.896 342.759 159.27 342.405 159.576L312.352 185.546C312 185.851 311.59 186.082 311.147 186.227C310.704 186.371 310.237 186.426 309.773 186.387C309.308 186.349 308.856 186.218 308.443 186.003C308.03 185.788 307.664 185.492 307.366 185.134L290.378 164.672M578.116 187.883L549.92 224.372C549.461 224.966 549.205 225.691 549.19 226.442C549.174 227.192 549.4 227.927 549.833 228.54L578.116 268.467M575.05 309.197C575.05 309.197 562.063 288.499 541.559 271.716C540.19 270.596 538.205 270.729 536.9 271.923C515.022 291.929 489.793 288.633 477.857 282.089C476.5 281.345 474.81 281.397 473.605 282.369L432.276 315.767M480.889 1.75195L490.5 14.2101C490.787 14.5823 491.146 14.8929 491.556 15.1234C491.966 15.3539 492.418 15.4995 492.885 15.5517C493.352 15.6038 493.825 15.5614 494.276 15.4269C494.726 15.2924 495.145 15.0686 495.507 14.7689L504.443 7.37356C505.071 6.85372 505.861 6.56937 506.677 6.56947H575.05M331.264 232.395L332.988 249.977C333.073 250.843 333.477 251.646 334.121 252.231C334.766 252.815 335.605 253.139 336.475 253.139H366.075C366.964 253.139 367.82 252.801 368.469 252.193L399.118 223.509C399.786 222.884 400.184 222.021 400.224 221.106C400.265 220.191 399.946 219.297 399.335 218.615L374.373 190.717C374.05 190.356 373.656 190.066 373.216 189.865C372.775 189.665 372.298 189.557 371.814 189.55C371.33 189.543 370.849 189.636 370.403 189.824C369.957 190.012 369.554 190.29 369.221 190.642L332.21 229.642C331.864 230.007 331.601 230.441 331.438 230.916C331.275 231.391 331.215 231.896 331.264 232.395ZM386.525 175.101L416.223 206.304C416.546 206.642 416.932 206.913 417.361 207.1C417.789 207.287 418.251 207.386 418.718 207.392C419.185 207.398 419.649 207.31 420.082 207.134C420.515 206.957 420.908 206.696 421.239 206.366L464.365 163.24C464.693 162.912 464.953 162.522 465.129 162.093C465.305 161.663 465.395 161.204 465.392 160.74C465.389 160.276 465.294 159.817 465.112 159.39C464.931 158.963 464.666 158.577 464.334 158.253L434.685 129.355C434.037 128.724 433.171 128.367 432.266 128.36C431.362 128.354 430.49 128.697 429.832 129.318L386.655 170.14C386.32 170.457 386.051 170.837 385.863 171.258C385.675 171.679 385.572 172.133 385.56 172.593C385.548 173.054 385.627 173.513 385.793 173.943C385.958 174.374 386.207 174.767 386.525 175.101ZM561.07 56.0585H509.384C508.52 56.0585 507.687 56.3774 507.044 56.9537L447.381 110.445C447.02 110.769 446.73 111.164 446.529 111.606C446.329 112.048 446.222 112.527 446.217 113.012C446.211 113.498 446.306 113.979 446.496 114.425C446.686 114.872 446.967 115.274 447.321 115.607L478.378 144.793C479.048 145.423 479.938 145.764 480.857 145.743C481.776 145.722 482.65 145.34 483.29 144.681L563.583 62.0033C565.741 59.7811 564.167 56.0585 561.07 56.0585Z" stroke="url(#paint5_linear_1_6)" stroke-width="3.50365"/>
<g opacity="0.9">
<path opacity="0.75" fill-rule="evenodd" clip-rule="evenodd" d="M498.852 211.096C511.434 211.096 521.626 221.94 521.626 235.33C521.626 246.052 515.106 255.109 506.054 258.321C504.915 258.532 504.488 257.805 504.488 257.17C504.488 256.594 504.516 254.685 504.516 252.656C510.239 253.777 511.719 251.172 512.174 249.808C512.43 249.112 513.541 246.962 514.509 246.385C515.306 245.932 516.445 244.81 514.537 244.781C512.744 244.75 511.462 246.537 511.036 247.264C508.986 250.93 505.712 249.9 504.403 249.264C504.204 247.689 503.605 246.628 502.951 246.022C508.018 245.417 513.313 243.327 513.313 234.057C513.313 231.421 512.43 229.24 510.979 227.544C511.207 226.938 512.004 224.454 510.751 221.122C510.751 221.122 508.843 220.486 504.488 223.606C502.64 223.06 500.722 222.784 498.795 222.788C496.859 222.788 494.923 223.061 493.101 223.606C488.746 220.456 486.839 221.122 486.839 221.122C485.586 224.454 486.383 226.938 486.611 227.544C485.159 229.24 484.277 231.391 484.277 234.057C484.277 243.356 489.6 245.417 494.667 246.022C493.842 246.779 493.13 248.234 493.13 250.506C493.13 253.747 493.158 256.351 493.158 257.17C493.158 257.805 492.731 258.563 491.592 258.321C482.597 255.109 476.078 246.022 476.078 235.33C476.078 221.94 486.269 211.096 498.852 211.096Z" fill="black"/>
</g>
</g>
</g>
<defs>
<linearGradient id="paint0_linear_1_6" x1="292.525" y1="214.929" x2="292.525" y2="403.28" gradientUnits="userSpaceOnUse">
<stop stop-color="white"/>
<stop offset="1" stop-color="white" stop-opacity="0"/>
</linearGradient>
<linearGradient id="paint1_linear_1_6" x1="282.498" y1="303.941" x2="282.498" y2="358.247" gradientUnits="userSpaceOnUse">
<stop stop-color="#5FB084"/>
<stop offset="1" stop-color="white" stop-opacity="0"/>
</linearGradient>
<linearGradient id="paint2_linear_1_6" x1="324.725" y1="304.046" x2="463.147" y2="91.782" gradientUnits="userSpaceOnUse">
<stop offset="0.873" stop-color="white"/>
<stop offset="1" stop-color="white" stop-opacity="0"/>
</linearGradient>
<linearGradient id="paint3_linear_1_6" x1="113.45" y1="335.475" x2="5.71309" y2="241.315" gradientUnits="userSpaceOnUse">
<stop stop-color="white"/>
<stop offset="1" stop-color="white" stop-opacity="0"/>
</linearGradient>
<linearGradient id="paint4_linear_1_6" x1="309.656" y1="211.97" x2="589.072" y2="14.89" gradientUnits="userSpaceOnUse">
<stop offset="0.647" stop-color="white"/>
<stop offset="1" stop-color="white" stop-opacity="0"/>
</linearGradient>
<linearGradient id="paint5_linear_1_6" x1="353.006" y1="274.599" x2="598.262" y2="32.4089" gradientUnits="userSpaceOnUse">
<stop stop-color="white"/>
<stop offset="1" stop-color="white" stop-opacity="0"/>
</linearGradient>
<clipPath id="clip0_1_6">
<rect width="582" height="360" fill="white" transform="translate(0.40625)"/>
</clipPath>
<clipPath id="clip1_1_6">
<rect width="581.606" height="360" fill="white" transform="translate(0.601562)"/>
</clipPath>
</defs>
</svg>
