<svg width="32" height="32" viewBox="0 0 32 32" fill="none" xmlns="http://www.w3.org/2000/svg">
<path d="M0.148625 13.6934C0.0723941 14.2277 0.0227911 14.7654 0 15.3047H24.3062C24.2213 15.1388 24.1073 14.9893 23.9923 14.843C19.837 9.47456 17.6017 9.94003 14.4042 9.80366C13.3382 9.75981 12.6152 9.74219 8.37181 9.74219C6.10066 9.74219 3.63156 9.74797 1.22719 9.75438C0.915938 10.5945 0.61575 11.4088 0.469594 12.0712H12.9249V13.6934H0.148625ZM24.4978 16.9284H0.0124687C0.0380937 17.3613 0.0784687 17.7883 0.136781 18.2097H22.7427C23.7505 18.2097 24.3146 17.6379 24.4978 16.9284ZM1.40678 22.635C1.40678 22.635 5.15441 31.837 15.9831 32.0004C22.4554 32.0004 28.0166 28.1565 30.5427 22.635H1.40678Z" fill="white"/>
<path d="M15.9848 0C10.0004 0 4.79284 3.28625 2.04281 8.14412C4.19191 8.13962 8.37731 8.13706 8.37731 8.13706H8.37828V8.13547C13.3254 8.13547 13.5093 8.15756 14.4757 8.19791L15.0741 8.21997C17.1585 8.28947 19.7205 8.51322 21.7363 10.0384C22.8305 10.8656 24.4104 12.6914 25.3522 13.9922C26.2228 15.1952 26.4733 16.5783 25.8813 17.9033C25.3365 19.1212 24.1641 19.8476 22.7444 19.8476H0.523438C0.523438 19.8476 0.655719 20.4083 0.854062 21.0273H31.1863C31.725 19.4082 32.0003 17.7132 32.0019 16.0068C32.0022 7.16734 24.831 0 15.9848 0Z" fill="white"/>
</svg>
